<svg width="50" height="50" viewBox="0 0 50 50" fill="none" xmlns="http://www.w3.org/2000/svg">
<path d="M25 4.16699C13.5125 4.16699 4.16663 13.5129 4.16663 25.0003C4.16663 36.4877 13.5125 45.8337 25 45.8337C36.4874 45.8337 45.8333 36.4877 45.8333 25.0003C45.8333 13.5129 36.4874 4.16699 25 4.16699ZM20.3125 18.7503C20.7122 18.7503 21.112 18.9029 21.4172 19.2081C22.0276 19.8185 22.0276 20.8071 21.4172 21.4176C18.9047 23.9301 15.2573 23.9587 15.1041 23.9587C14.2416 23.9587 13.5416 23.2587 13.5416 22.3962C13.5416 21.5337 14.2416 20.8337 15.1041 20.8337C15.1218 20.8337 17.6244 20.7893 19.2077 19.2081C19.5129 18.9029 19.9127 18.7503 20.3125 18.7503ZM29.6875 18.7503C30.0872 18.7503 30.487 18.9029 30.7922 19.2081C32.3745 20.7904 34.88 20.8337 34.9039 20.8337C35.7643 20.842 36.4584 21.5439 36.4542 22.4043C36.4501 23.2637 35.7552 23.9587 34.8958 23.9587C34.7427 23.9587 31.0942 23.9311 28.5827 21.4176C27.9723 20.8071 27.9723 19.8185 28.5827 19.2081C28.8879 18.9029 29.2877 18.7503 29.6875 18.7503ZM25 28.1253C28.8541 28.1253 32.4311 29.861 34.8124 32.8881C35.3468 33.5662 35.227 34.55 34.5499 35.0833C34.2635 35.3094 33.921 35.417 33.5835 35.417C33.121 35.417 32.664 35.2125 32.3567 34.8209C30.5713 32.5511 27.8895 31.2503 25 31.2503C22.1104 31.2503 19.4286 32.5521 17.6432 34.8209C17.1109 35.498 16.1292 35.6167 15.45 35.0813C14.7729 34.549 14.6532 33.5662 15.1875 32.8881C17.5688 29.8621 21.1458 28.1253 25 28.1253Z" fill="white"/>
</svg>
