<svg width="50" height="50" viewBox="0 0 50 50" fill="none" xmlns="http://www.w3.org/2000/svg">
<path d="M20.8333 4C9.3459 4 0 13.3459 0 24.8333C0 36.3208 9.3459 45.6667 20.8333 45.6667C32.3208 45.6667 41.6667 36.3208 41.6667 24.8333C41.6667 13.3459 32.3208 4 20.8333 4ZM14.5833 18.0625C16.0219 18.0625 17.1875 19.2281 17.1875 20.6667C17.1875 22.1052 16.0219 23.2708 14.5833 23.2708C13.1448 23.2708 11.9792 22.1052 11.9792 20.6667C11.9792 19.2281 13.1448 18.0625 14.5833 18.0625ZM27.0833 18.0625C28.5219 18.0625 29.6875 19.2281 29.6875 20.6667C29.6875 22.1052 28.5219 23.2708 27.0833 23.2708C25.6448 23.2708 24.4792 22.1052 24.4792 20.6667C24.4792 19.2281 25.6448 18.0625 27.0833 18.0625ZM14.0625 30.0417H27.6042C28.4667 30.0417 29.1667 30.7417 29.1667 31.6042C29.1667 32.4667 28.4667 33.1667 27.6042 33.1667H14.0625C13.2 33.1667 12.5 32.4667 12.5 31.6042C12.5 30.7417 13.2 30.0417 14.0625 30.0417Z" fill="white"/>
</svg>
