<svg width="95" height="85" viewBox="0 0 95 85" fill="none" xmlns="http://www.w3.org/2000/svg">
<path fill-rule="evenodd" clip-rule="evenodd" d="M19.7915 40.7292C19.7915 38.7731 21.5636 37.1875 23.7498 37.1875H27.7082C29.8944 37.1875 31.6665 38.7731 31.6665 40.7292V44.2708C31.6665 46.2269 29.8944 47.8125 27.7082 47.8125H23.7498C21.5636 47.8125 19.7915 46.2269 19.7915 44.2708V40.7292ZM27.7082 40.7292V44.2708H23.7498V40.7292H27.7082Z" fill="#26E2C8"/>
<path fill-rule="evenodd" clip-rule="evenodd" d="M39.5833 37.1875C37.3971 37.1875 35.625 38.7731 35.625 40.7292V44.2708C35.625 46.2269 37.3971 47.8125 39.5833 47.8125H43.5417C45.7279 47.8125 47.5 46.2269 47.5 44.2708V40.7292C47.5 38.7731 45.7279 37.1875 43.5417 37.1875H39.5833ZM43.5417 40.7292H39.5833V44.2708H43.5417V40.7292Z" fill="#26E2C8"/>
<path fill-rule="evenodd" clip-rule="evenodd" d="M51.4585 40.7292C51.4585 38.7731 53.2306 37.1875 55.4168 37.1875H59.3752C61.5613 37.1875 63.3335 38.7731 63.3335 40.7292V44.2708C63.3335 46.2269 61.5613 47.8125 59.3752 47.8125H55.4168C53.2306 47.8125 51.4585 46.2269 51.4585 44.2708V40.7292ZM55.4168 40.7292H59.3752V44.2708H55.4168V40.7292Z" fill="#26E2C8"/>
<path fill-rule="evenodd" clip-rule="evenodd" d="M23.7498 51.354C21.5636 51.354 19.7915 52.9396 19.7915 54.8957V58.4373C19.7915 60.3934 21.5636 61.979 23.7498 61.979H27.7082C29.8944 61.979 31.6665 60.3934 31.6665 58.4373V54.8957C31.6665 52.9396 29.8944 51.354 27.7082 51.354H23.7498ZM23.7498 54.8957V58.4373H27.7082V54.8957H23.7498Z" fill="#26E2C8"/>
<path fill-rule="evenodd" clip-rule="evenodd" d="M35.625 54.8957C35.625 52.9396 37.3971 51.354 39.5833 51.354H43.5417C45.7279 51.354 47.5 52.9396 47.5 54.8957V58.4373C47.5 60.3934 45.7279 61.979 43.5417 61.979H39.5833C37.3971 61.979 35.625 60.3934 35.625 58.4373V54.8957ZM39.5833 54.8957H43.5417V58.4373H39.5833V54.8957Z" fill="#26E2C8"/>
<path d="M69.2707 55.7812C70.3638 55.7812 71.2498 56.5741 71.2498 57.5521V61.2457L72.6493 62.4978C73.4222 63.1894 73.4222 64.3106 72.6493 65.0022C71.8764 65.6937 70.6232 65.6937 69.8504 65.0022L67.2915 62.7126V57.5521C67.2915 56.5741 68.1776 55.7812 69.2707 55.7812Z" fill="#26E2C8"/>
<path fill-rule="evenodd" clip-rule="evenodd" d="M23.75 12.3958C23.75 11.4178 24.6361 10.625 25.7292 10.625C26.8223 10.625 27.7083 11.4178 27.7083 12.3958V21.25C27.7083 22.228 26.8223 23.0208 25.7292 23.0208C24.6361 23.0208 23.75 22.228 23.75 21.25V19.4792H17.8125C16.7194 19.4792 15.8333 20.272 15.8333 21.25V28.3333H67.2917V21.25C67.2917 20.272 66.4056 19.4792 65.3125 19.4792H59.375V15.9375H65.3125C68.5918 15.9375 71.25 18.3161 71.25 21.25V49.7089C77.9639 50.5681 83.125 55.7343 83.125 61.9792C83.125 68.8252 76.9223 74.375 69.2708 74.375C64.563 74.375 60.4034 72.2739 57.8999 69.0625H17.8125C14.5333 69.0625 11.875 66.6841 11.875 63.75V21.25C11.875 18.3159 14.5333 15.9375 17.8125 15.9375H23.75V12.3958ZM55.4167 61.9792C55.4167 55.7343 60.5777 50.5681 67.2917 49.7089V31.875H15.8333V63.75C15.8333 64.728 16.7194 65.5208 17.8125 65.5208H55.9904C55.6172 64.3987 55.4167 63.2099 55.4167 61.9792ZM69.2708 70.8333C74.7361 70.8333 79.1667 66.8691 79.1667 61.9792C79.1667 57.0892 74.7361 53.125 69.2708 53.125C63.8056 53.125 59.375 57.0892 59.375 61.9792C59.375 66.8691 63.8056 70.8333 69.2708 70.8333Z" fill="#26E2C8"/>
<path d="M53.4373 23.0208C52.3442 23.0208 51.4582 22.228 51.4582 21.25V19.4792H31.6665V15.9375H51.4582V12.3958C51.4582 11.4178 52.3442 10.625 53.4373 10.625C54.5304 10.625 55.4165 11.4178 55.4165 12.3958V21.25C55.4165 22.228 54.5304 23.0208 53.4373 23.0208Z" fill="#26E2C8"/>
</svg>
