<svg width="41" height="41" viewBox="0 0 41 41" fill="none" xmlns="http://www.w3.org/2000/svg">
<path d="M20.5 0C9.19637 0 0 9.19637 0 20.5C0 31.8036 9.19637 41 20.5 41C31.8036 41 41 31.8036 41 20.5C41 9.19637 31.8036 0 20.5 0ZM11.7875 12.3H15.8875C16.7362 12.3 17.425 12.9888 17.425 13.8375C17.425 14.6862 16.7362 15.375 15.8875 15.375H11.7875C10.9388 15.375 10.25 14.6862 10.25 13.8375C10.25 12.9888 10.9388 12.3 11.7875 12.3ZM25.1125 12.3H29.2125C30.0612 12.3 30.75 12.9888 30.75 13.8375C30.75 14.6862 30.0612 15.375 29.2125 15.375H25.1125C24.2638 15.375 23.575 14.6862 23.575 13.8375C23.575 12.9888 24.2638 12.3 25.1125 12.3ZM12.3 21.525H28.7C29.2668 21.525 29.725 21.9832 29.725 22.55C29.725 27.551 25.501 31.775 20.5 31.775C15.499 31.775 11.275 27.551 11.275 22.55C11.275 21.9832 11.7332 21.525 12.3 21.525Z" fill="white"/>
</svg>
