<svg width="42" height="42" viewBox="0 0 42 42" fill="none" xmlns="http://www.w3.org/2000/svg">
<path d="M21.0001 0C9.51265 0 0.166748 9.34591 0.166748 20.8333C0.166748 32.3208 9.51265 41.6667 21.0001 41.6667C32.4875 41.6667 41.8334 32.3208 41.8334 20.8333C41.8334 9.34591 32.4875 0 21.0001 0ZM14.7501 13.0208C16.1886 13.0208 17.3542 14.1865 17.3542 15.625C17.3542 17.0635 16.1886 18.2292 14.7501 18.2292C13.3115 18.2292 12.1459 17.0635 12.1459 15.625C12.1459 14.1865 13.3115 13.0208 14.7501 13.0208ZM27.2501 13.0208C28.6886 13.0208 29.8542 14.1865 29.8542 15.625C29.8542 17.0635 28.6886 18.2292 27.2501 18.2292C25.8115 18.2292 24.6459 17.0635 24.6459 15.625C24.6459 14.1865 25.8115 13.0208 27.2501 13.0208ZM12.3026 25.0041C12.8027 24.968 13.31 25.1729 13.6433 25.5961C15.4287 27.8659 18.1105 29.1667 21.0001 29.1667C23.8897 29.1667 26.5714 27.8649 28.3569 25.5961C28.8902 24.919 29.8698 24.8003 30.55 25.3357C31.2271 25.868 31.3469 26.8508 30.8125 27.5289C28.4312 30.5549 24.8542 32.2917 21.0001 32.2917C17.1459 32.2917 13.5689 30.556 11.1877 27.5289C10.6533 26.8508 10.773 25.867 11.4501 25.3337C11.7048 25.1329 12.0025 25.0257 12.3026 25.0041Z" fill="white"/>
</svg>
