<svg width="50" height="50" viewBox="0 0 50 50" fill="none" xmlns="http://www.w3.org/2000/svg">
<path d="M25 4.16699C13.5125 4.16699 4.16663 13.5129 4.16663 25.0003C4.16663 36.4877 13.5125 45.8337 25 45.8337C36.4874 45.8337 45.8333 36.4877 45.8333 25.0003C45.8333 13.5129 36.4874 4.16699 25 4.16699ZM18.75 17.1878C20.1885 17.1878 21.3541 18.3534 21.3541 19.792C21.3541 21.2305 20.1885 22.3962 18.75 22.3962C17.3114 22.3962 16.1458 21.2305 16.1458 19.792C16.1458 18.3534 17.3114 17.1878 18.75 17.1878ZM31.25 17.1878C32.6885 17.1878 33.8541 18.3534 33.8541 19.792C33.8541 21.2305 32.6885 22.3962 31.25 22.3962C29.8114 22.3962 28.6458 21.2305 28.6458 19.792C28.6458 18.3534 29.8114 17.1878 31.25 17.1878ZM25 27.0837C28.8541 27.0837 32.4311 28.8194 34.8124 31.8464C35.3468 32.5246 35.227 33.5083 34.5499 34.0417C34.2635 34.2677 33.921 34.3753 33.5835 34.3753C33.121 34.3753 32.664 34.1709 32.3567 33.7792C30.5713 31.5094 27.8895 30.2087 25 30.2087C22.1104 30.2087 19.4286 31.5105 17.6432 33.7792C17.1109 34.4563 16.1292 34.5761 15.45 34.0396C14.7729 33.5073 14.6532 32.5246 15.1875 31.8464C17.5688 28.8204 21.1458 27.0837 25 27.0837Z" fill="white"/>
</svg>
