<svg width="100" height="84.4" viewBox="0 0 100 84.4" xmlns="http://www.w3.org/2000/svg"><path style="fill:#74178c;stroke-width:10.2211" d="m 22.988506,40.065679 q 0,-10.509031 6.075533,-18.883415 6.239738,-8.374385 17.077176,-13.1362895 L 43.842365,-2.592802e-6 Q 23.64532,4.433495 11.82266,20.853856 -2.0861626e-7,37.274218 -2.0861626e-7,56.157633 q 0,11.822661 5.74712650861626,20.032841 5.7471267,8.210181 16.2561577,8.210181 9.031199,0 15.270936,-6.896552 6.239738,-6.896552 6.239738,-16.256158 0,-9.031198 -5.747127,-15.106732 -5.747126,-6.075534 -14.778325,-6.075534 z m 53.858785,0 q 0,-10.509031 6.075534,-18.883415 Q 89.162562,12.807879 100,8.0459745 L 97.70115,-2.592802e-6 Q 77.504106,4.433495 65.681445,20.853856 q -11.82266,16.420362 -11.82266,35.303777 0,11.822661 5.747127,20.032841 5.747126,8.210181 16.256157,8.210181 9.031199,0 15.270937,-6.896552 6.239737,-6.896552 6.239737,-16.256158 0,-9.031198 -5.747127,-15.106732 -5.747126,-6.075534 -14.778325,-6.075534 z"/></svg>