<?xml version="1.0" standalone="no"?>
<!DOCTYPE svg PUBLIC "-//W3C//DTD SVG 20010904//EN"
 "http://www.w3.org/TR/2001/REC-SVG-20010904/DTD/svg10.dtd">
<svg version="1.0" xmlns="http://www.w3.org/2000/svg"
 width="720.000000pt" height="720.000000pt" viewBox="0 0 720.000000 720.000000"
 preserveAspectRatio="xMidYMid meet">
<metadata>
Created by potrace 1.14, written by Peter Selinger 2001-2017
</metadata>
<g transform="translate(0.000000,720.000000) scale(0.100000,-0.100000)"
fill="#000000" stroke="none">
<path d="M3345 5789 c-709 -30 -1392 -235 -1898 -569 -348 -229 -573 -467
-733 -774 -210 -401 -210 -868 0 -1284 55 -108 166 -267 264 -378 396 -444
1072 -780 1829 -908 277 -47 436 -59 750 -60 l292 -1 3 -235 c3 -261 8 -282
71 -320 86 -53 233 -8 583 175 539 282 997 608 1350 959 237 237 400 456 515
691 84 171 125 304 160 517 29 174 30 189 19 298 -26 277 -118 517 -290 763
-82 116 -323 360 -452 456 -636 472 -1513 711 -2463 670z m2160 -1212 c52 -29
85 -87 85 -150 0 -55 -10 -79 -53 -125 -59 -62 -162 -67 -231 -10 -129 106
-57 308 109 308 33 0 63 -8 90 -23z m-331 -78 c3 -34 6 -363 6 -730 l0 -669
-135 0 -135 0 0 730 0 730 129 0 128 0 7 -61z m-3364 -289 l0 -280 280 0 280
0 0 280 0 280 140 0 140 0 0 -700 0 -700 -140 0 -140 0 0 280 0 280 -280 0
-280 0 0 -280 0 -280 -140 0 -140 0 0 700 0 700 140 0 140 0 0 -280z m1528
-45 c75 -18 139 -49 212 -104 30 -23 58 -41 61 -41 4 0 29 27 56 60 42 53 52
60 78 58 l30 -3 3 -516 2 -517 -30 -4 c-28 -4 -35 1 -81 64 -28 37 -54 68 -59
68 -4 0 -25 -14 -46 -31 -105 -84 -205 -121 -325 -121 -246 -1 -435 140 -505
377 -23 75 -25 248 -5 320 57 201 208 348 401 389 85 19 131 19 208 1z m792
-307 c0 -156 4 -310 10 -342 12 -72 47 -121 110 -153 79 -41 157 -26 223 42
63 65 67 91 67 432 l0 303 128 0 129 0 7 -452 c7 -473 3 -553 -33 -648 -60
-157 -213 -293 -371 -329 -25 -6 -93 -11 -152 -11 l-108 0 0 130 0 130 83 0
c95 0 145 12 198 47 34 22 105 111 96 120 -2 1 -33 -9 -68 -23 -57 -23 -74
-26 -151 -21 -73 4 -99 10 -161 40 -121 57 -191 134 -239 263 -21 56 -22 78
-26 407 l-3 347 130 0 131 0 0 -282z m1420 -238 l0 -520 -128 0 -129 0 -6 128
c-4 70 -7 304 -7 520 l0 392 135 0 135 0 0 -520z"/>
<path d="M3170 3901 c-129 -42 -199 -155 -187 -302 9 -113 54 -185 142 -232
52 -28 174 -30 222 -4 55 29 103 78 131 131 36 69 38 189 5 252 -54 102 -128
154 -226 160 -34 2 -73 0 -87 -5z"/>
</g>
</svg>
