<svg width="308" height="236" viewBox="0 0 308 236" fill="none" xmlns="http://www.w3.org/2000/svg">
	<g filter="url(#filter0_d_276_905)">
		<path d="M154 0C71.5 0 4 44.1429 4 99.3214C4 157.811 79 204.161 169 198.643V220.714C169 220.714 169 231.75 184 226.232L191.5 222.921C208 215.196 293.5 172.157 302.5 111.461C302.5 108.15 304 104.839 304 100.425C304 44.1429 236.5 0 154 0Z" fill="white" />
		<path d="M169.5 198.643V198.111L168.969 198.144C124.058 200.897 82.9117 190.707 53.0094 172.557C23.1015 154.404 4.5 128.333 4.5 99.3214C4.5 71.9534 21.2395 47.2603 48.3378 29.3861C75.4326 11.5142 112.834 0.5 154 0.5C195.166 0.5 232.567 11.5142 259.661 29.5231C286.757 47.5333 303.5 72.5018 303.5 100.425C303.5 102.577 303.135 104.464 302.761 106.254C302.733 106.386 302.705 106.518 302.678 106.649C302.337 108.27 302.005 109.845 302 111.423C297.516 141.558 274.033 167.376 249.503 186.662C224.988 205.938 199.531 218.609 191.293 222.466C191.291 222.467 191.29 222.468 191.288 222.469L183.813 225.768C176.417 228.485 172.924 227.059 171.246 225.207C170.381 224.253 169.942 223.131 169.72 222.232C169.609 221.785 169.554 221.4 169.527 221.128C169.519 221.048 169.513 220.979 169.509 220.92C169.506 220.879 169.504 220.843 169.503 220.814C169.501 220.778 169.501 220.752 169.5 220.735L169.5 220.717L169.5 220.714V220.714V198.643Z" stroke="black" />
	</g>
	<defs>
		<filter id="filter0_d_276_905" x="0" y="0" width="308" height="235.777" filterUnits="userSpaceOnUse" color-interpolation-filters="sRGB">
			<feFlood flood-opacity="0" result="BackgroundImageFix" />
			<feColorMatrix in="SourceAlpha" type="matrix" values="0 0 0 0 0 0 0 0 0 0 0 0 0 0 0 0 0 0 127 0" result="hardAlpha" />
			<feOffset dy="4" />
			<feGaussianBlur stdDeviation="2" />
			<feComposite in2="hardAlpha" operator="out" />
			<feColorMatrix type="matrix" values="0 0 0 0 0 0 0 0 0 0 0 0 0 0 0 0 0 0 0.25 0" />
			<feBlend mode="normal" in2="BackgroundImageFix" result="effect1_dropShadow_276_905" />
			<feBlend mode="normal" in="SourceGraphic" in2="effect1_dropShadow_276_905" result="shape" />
		</filter>
	</defs>
</svg>