<svg width="360" height="300" viewBox="0 0 360 300" fill="none" xmlns="http://www.w3.org/2000/svg">
<path d="M177.771 40.2856C95.2715 40.2856 27.7715 84.4285 27.7715 139.607C27.7715 198.096 102.771 244.446 192.771 238.928V261C192.771 261 192.771 272.036 207.771 266.518L215.271 263.207C231.771 255.482 317.271 212.443 326.271 151.746C326.271 148.436 327.771 145.125 327.771 140.711C327.771 84.4285 260.271 40.2856 177.771 40.2856Z" fill="#00E3C8"/>
<path d="M90.5745 175.509L76.5608 175.539L76.3477 105.52L90.3613 105.49L90.4467 133.517L118.425 133.458L118.34 105.431L132.353 105.401L132.567 175.42L118.553 175.45L118.468 147.472L90.4893 147.531L90.5745 175.509ZM189.041 175.301L185.818 175.308L180.621 168.141C179.355 169.283 178.007 170.36 176.578 171.372C175.181 172.352 173.703 173.217 172.142 173.969C170.582 174.689 168.972 175.262 167.314 175.689C165.687 176.115 164.028 176.33 162.335 176.334C158.657 176.342 155.188 175.731 151.929 174.5C148.703 173.27 145.865 171.486 143.417 169.147C141.001 166.776 139.087 163.883 137.677 160.468C136.267 157.053 135.555 153.165 135.542 148.803C135.53 144.734 136.218 141.005 137.608 137.617C138.997 134.196 140.892 131.262 143.294 128.816C145.728 126.369 148.554 124.475 151.773 123.134C155.024 121.759 158.488 121.069 162.167 121.061C163.86 121.057 165.537 121.265 167.198 121.685C168.86 122.105 170.473 122.687 172.037 123.433C173.602 124.178 175.086 125.054 176.489 126.06C177.924 127.066 179.262 128.154 180.503 129.323L185.66 123.111L188.882 123.104L189.041 175.301ZM175.532 148.718C175.527 146.895 175.163 145.138 174.442 143.447C173.753 141.723 172.805 140.212 171.596 138.912C170.388 137.58 168.969 136.525 167.339 135.747C165.741 134.937 164.031 134.533 162.208 134.537C160.385 134.541 158.661 134.854 157.035 135.476C155.442 136.098 154.045 137.012 152.844 138.219C151.676 139.426 150.753 140.925 150.075 142.717C149.396 144.476 149.061 146.495 149.068 148.774C149.074 151.053 149.422 153.086 150.112 154.875C150.8 156.632 151.733 158.111 152.908 159.313C154.116 160.515 155.519 161.423 157.116 162.038C158.745 162.653 160.471 162.959 162.294 162.955C164.117 162.951 165.825 162.557 167.418 161.772C169.043 160.955 170.456 159.894 171.656 158.59C172.856 157.252 173.796 155.737 174.474 154.043C175.185 152.316 175.538 150.541 175.532 148.718ZM206.904 195.185L206.864 181.757L214.286 181.839C215.588 181.837 216.84 181.622 218.043 181.197C219.247 180.771 220.352 180.183 221.358 179.432C222.398 178.681 223.307 177.784 224.085 176.741C224.863 175.73 225.494 174.622 225.979 173.416C224.516 174.038 223.02 174.659 221.492 175.281C219.997 175.903 218.484 176.215 216.954 176.219C213.731 176.225 210.702 175.662 207.867 174.529C205.031 173.395 202.536 171.789 200.381 169.711C198.259 167.599 196.575 165.047 195.329 162.055C194.115 159.03 193.503 155.646 193.491 151.903L193.403 122.997L206.685 122.969L206.773 151.875C206.778 153.73 207.044 155.357 207.569 156.756C208.126 158.122 208.862 159.276 209.776 160.218C210.691 161.128 211.751 161.809 212.957 162.262C214.195 162.715 215.514 162.94 216.914 162.937C218.281 162.934 219.566 162.622 220.768 162.001C222.003 161.348 223.075 160.499 223.983 159.456C224.891 158.412 225.604 157.239 226.121 155.935C226.638 154.6 226.894 153.232 226.89 151.832L226.802 122.926L240.229 122.898L240.369 168.601C240.347 172.279 239.642 175.731 238.252 178.957C236.862 182.182 234.95 185.002 232.516 187.416C230.114 189.83 227.304 191.74 224.086 193.147C220.867 194.553 217.419 195.261 213.741 195.268L206.904 195.185ZM259.021 175.153L245.594 175.181L245.371 102.086L258.799 102.058L259.021 175.153ZM279.747 108.605C279.75 109.842 279.51 110.998 279.025 112.074C278.572 113.149 277.94 114.094 277.129 114.91C276.318 115.693 275.359 116.329 274.254 116.82C273.181 117.278 272.026 117.508 270.789 117.511C269.552 117.513 268.38 117.288 267.272 116.835C266.196 116.349 265.25 115.716 264.434 114.936C263.65 114.124 263.012 113.182 262.521 112.108C262.062 111.035 261.83 109.88 261.827 108.643C261.823 107.439 262.047 106.299 262.5 105.224C262.985 104.116 263.617 103.171 264.396 102.388C265.207 101.572 266.149 100.935 267.222 100.477C268.327 99.9867 269.498 99.7401 270.735 99.7375C271.972 99.7349 273.129 99.9766 274.204 100.463C275.312 100.916 276.275 101.549 277.091 102.361C277.907 103.14 278.545 104.083 279.004 105.189C279.495 106.262 279.743 107.401 279.747 108.605ZM277.654 175.114L264.226 175.142L264.067 122.847L277.495 122.819L277.654 175.114Z" fill="white"/>
</svg>
